ISO-10303-21;
HEADER;
FILE_DESCRIPTION (( 'STEP AP203' ),
    '1' );
FILE_NAME ('taad.STEP',
    '2026-09-17T07:48:59',
    ( '' ),
    ( '' ),
    'SwSTEP 2.0',
    'SolidWorks 2022',
    '' );
FILE_SCHEMA (( 'CONFIG_CONTROL_DESIGN' ));
ENDSEC;

DATA;
#1 = CARTESIAN_POINT ( 'NONE',  ( 0.000000000000000000, 0.000000000000000000, 0.000000000000000000 ) ) ;
#2 = DIRECTION ( 'NONE',  ( 0.000000000000000000, 0.000000000000000000, 1.000000000000000000 ) ) ;
#3 = EDGE_CURVE ( 'NONE', #106, #149, #264, .T. ) ;
#4 = APPROVAL_ROLE ( '' ) ;
#5 = CARTESIAN_POINT ( 'NONE',  ( -2.500000000000000000, 0.000000000000000000, -38.79999999999999716 ) ) ;
#6 = SECURITY_CLASSIFICATION_LEVEL ( 'unclassified' ) ;
#7 = CARTESIAN_POINT ( 'NONE',  ( 0.000000000000000000, 13.84999999999999964, 0.000000000000000000 ) ) ;
#8 = VERTEX_POINT ( 'NONE', #360 ) ;
#9 = VECTOR ( 'NONE', #197, 1000.000000000000000 ) ;
#10 = COORDINATED_UNIVERSAL_TIME_OFFSET ( 7, 0, .AHEAD. ) ;
#11 = CARTESIAN_POINT ( 'NONE',  ( 163.0000000000000000, 1.500000000000000000, -11.73669459430550255 ) ) ;
#12 = ORIENTED_EDGE ( 'NONE', *, *, #423, .T. ) ;
#13 = APPROVAL_STATUS ( 'not_yet_approved' ) ;
#14 = CARTESIAN_POINT ( 'NONE',  ( 0.000000000000000000, 2.500000000000000000, -38.79999999999999716 ) ) ;
#15 = ORIENTED_EDGE ( 'NONE', *, *, #25, .F. ) ;
#16 = CALENDAR_DATE ( 2026, 17, 9 ) ;
#17 = CARTESIAN_POINT ( 'NONE',  ( -2.500000000000000000, 0.000000000000000000, 0.000000000000000000 ) ) ;
#18 = EDGE_LOOP ( 'NONE', ( #426, #528, #251, #458 ) ) ;
#19 = ADVANCED_FACE ( 'NONE', ( #311 ), #313, .T. ) ;
#20 = VECTOR ( 'NONE', #455, 1000.000000000000000 ) ;
#21 = DIRECTION ( 'NONE',  ( 1.000000000000000000, 0.000000000000000000, 0.000000000000000000 ) ) ;
#22 = VERTEX_POINT ( 'NONE', #587 ) ;
#23 = DIRECTION ( 'NONE',  ( -0.000000000000000000, 1.000000000000000000, -0.000000000000000000 ) ) ;
#24 = ORIENTED_EDGE ( 'NONE', *, *, #302, .T. ) ;
#25 = EDGE_CURVE ( 'NONE', #438, #578, #182, .T. ) ;
#26 = CARTESIAN_POINT ( 'NONE',  ( 147.5000000000000284, 12.70192307692307310, -2.540384615384613909 ) ) ;
#27 = VERTEX_POINT ( 'NONE', #495 ) ;
#28 = VECTOR ( 'NONE', #84, 1000.000000000000000 ) ;
#29 = EDGE_CURVE ( 'NONE', #570, #75, #270, .T. ) ;
#30 = LINE ( 'NONE', #530, #483 ) ;
#31 = LOCAL_TIME ( 14, 48, 59.00000000000000000, #10 ) ;
#32 = CC_DESIGN_SECURITY_CLASSIFICATION ( #280, ( #552 ) ) ;
#33 = VERTEX_POINT ( 'NONE', #259 ) ;
#34 = CARTESIAN_POINT ( 'NONE',  ( 165.5000000000000000, 0.000000000000000000, 0.000000000000000000 ) ) ;
#35 = ORIENTED_EDGE ( 'NONE', *, *, #510, .F. ) ;
#36 = CARTESIAN_POINT ( 'NONE',  ( 15.50000000000000000, 2.394230769230763833, 0.4788461538461530331 ) ) ;
#37 = ORIENTED_EDGE ( 'NONE', *, *, #82, .F. ) ;
#38 = EDGE_CURVE ( 'NONE', #467, #209, #221, .T. ) ;
#39 = DIRECTION ( 'NONE',  ( 0.000000000000000000, -0.9805806756909202226, 0.1961161351381839890 ) ) ;
#40 = DIRECTION ( 'NONE',  ( 1.000000000000000000, 0.000000000000000000, -0.000000000000000000 ) ) ;
#41 = VECTOR ( 'NONE', #156, 1000.000000000000000 ) ;
#42 = VECTOR ( 'NONE', #350, 1000.000000000000000 ) ;
#43 = EDGE_CURVE ( 'NONE', #570, #467, #403, .T. ) ;
#44 = DIRECTION ( 'NONE',  ( 0.000000000000000000, 0.2083333333333332871, -0.9780578828587918050 ) ) ;
#45 = VERTEX_POINT ( 'NONE', #138 ) ;
#46 = LINE ( 'NONE', #586, #143 ) ;
#47 = CARTESIAN_POINT ( 'NONE',  ( 0.000000000000000000, 13.84999999999999964, 0.000000000000000000 ) ) ;
#48 = CARTESIAN_POINT ( 'NONE',  ( -2.500000000000002220, 13.84999999999999964, -38.80000000000000426 ) ) ;
#49 = EDGE_CURVE ( 'NONE', #372, #567, #589, .T. ) ;
#50 = DIRECTION ( 'NONE',  ( -0.000000000000000000, -1.000000000000000000, -0.000000000000000000 ) ) ;
#51 = APPROVAL_PERSON_ORGANIZATION ( #96, #380, #4 ) ;
#52 = DIRECTION ( 'NONE',  ( 0.000000000000000000, 0.000000000000000000, -1.000000000000000000 ) ) ;
#53 = FACE_OUTER_BOUND ( 'NONE', #351, .T. ) ;
#54 = CARTESIAN_POINT ( 'NONE',  ( 0.000000000000000000, 0.000000000000000000, 0.000000000000000000 ) ) ;
#55 = CARTESIAN_POINT ( 'NONE',  ( -2.500000000000000000, 13.84999999999999964, 0.000000000000000000 ) ) ;
#56 = APPLICATION_PROTOCOL_DEFINITION ( 'international standard', 'config_control_design', 1994, #309 ) ;
#57 = DIRECTION ( 'NONE',  ( -1.000000000000000000, 0.000000000000000000, 0.000000000000000000 ) ) ;
#58 = ORIENTED_EDGE ( 'NONE', *, *, #306, .F. ) ;
#59 = EDGE_CURVE ( 'NONE', #488, #22, #410, .T. ) ;
#60 = DIRECTION ( 'NONE',  ( -1.000000000000000000, 0.000000000000000000, 0.000000000000000000 ) ) ;
#61 = SHAPE_DEFINITION_REPRESENTATION ( #393, #199 ) ;
#62 = CARTESIAN_POINT ( 'NONE',  ( 163.0000000000000000, 13.84999999999999964, -33.79999999999999716 ) ) ;
#63 = ORIENTED_EDGE ( 'NONE', *, *, #503, .F. ) ;
#64 = PERSON_AND_ORGANIZATION ( #551, #298 ) ;
#65 = CARTESIAN_POINT ( 'NONE',  ( 0.000000000000000000, 13.84999999999999964, -33.79999999999999716 ) ) ;
#66 = APPROVAL ( #140, 'UNSPECIFIED' ) ;
#67 = ORIENTED_EDGE ( 'NONE', *, *, #402, .F. ) ;
#68 = AXIS2_PLACEMENT_3D ( 'NONE', #516, #328, #415 ) ;
#69 = AXIS2_PLACEMENT_3D ( 'NONE', #171, #533, #126 ) ;
#70 = DIRECTION ( 'NONE',  ( 0.000000000000000000, -0.1961161351381841556, 0.9805806756909201116 ) ) ;
#71 = ORIENTED_EDGE ( 'NONE', *, *, #437, .T. ) ;
#72 = DIRECTION ( 'NONE',  ( -1.000000000000000000, 0.000000000000000000, 0.000000000000000000 ) ) ;
#73 = VERTEX_POINT ( 'NONE', #174 ) ;
#74 = DIRECTION ( 'NONE',  ( 1.000000000000000000, -0.000000000000000000, -0.000000000000000000 ) ) ;
#75 = VERTEX_POINT ( 'NONE', #179 ) ;
#76 = CARTESIAN_POINT ( 'NONE',  ( 0.000000000000000000, 13.84999999999999964, -38.79999999999999716 ) ) ;
#77 = EDGE_LOOP ( 'NONE', ( #517, #159, #387, #285 ) ) ;
#78 = CARTESIAN_POINT ( 'NONE',  ( 163.0000000000000000, 13.84999999999999964, 0.000000000000000000 ) ) ;
#79 = EDGE_CURVE ( 'NONE', #438, #27, #266, .T. ) ;
#80 = EDGE_LOOP ( 'NONE', ( #136, #526, #67, #87 ) ) ;
#81 = PLANE ( 'NONE',  #450 ) ;
#82 = EDGE_CURVE ( 'NONE', #27, #514, #449, .T. ) ;
#83 = FACE_OUTER_BOUND ( 'NONE', #276, .T. ) ;
#84 = DIRECTION ( 'NONE',  ( -1.000000000000000000, -0.000000000000000000, -0.000000000000000000 ) ) ;
#85 = VECTOR ( 'NONE', #537, 1000.000000000000000 ) ;
#86 = CARTESIAN_POINT ( 'NONE',  ( 165.5000000000000000, 0.000000000000000000, 0.000000000000000000 ) ) ;
#87 = ORIENTED_EDGE ( 'NONE', *, *, #230, .T. ) ;
#88 = ADVANCED_FACE ( 'NONE', ( #53 ), #365, .F. ) ;
#89 = PLANE ( 'NONE',  #207 ) ;
#90 = CARTESIAN_POINT ( 'NONE',  ( 15.49999999999999822, 12.04999999999999893, -38.79999999999999716 ) ) ;
#91 = LINE ( 'NONE', #446, #406 ) ;
#92 = CARTESIAN_POINT ( 'NONE',  ( 163.0000000000000000, 0.000000000000000000, 0.000000000000000000 ) ) ;
#93 = VECTOR ( 'NONE', #219, 1000.000000000000000 ) ;
#94 = APPROVAL_DATE_TIME ( #107, #380 ) ;
#95 = LINE ( 'NONE', #62, #133 ) ;
#96 = PERSON_AND_ORGANIZATION ( #551, #298 ) ;
#97 = FACE_OUTER_BOUND ( 'NONE', #18, .T. ) ;
#98 = ORIENTED_EDGE ( 'NONE', *, *, #335, .T. ) ;
#99 = DATE_TIME_ROLE ( 'classification_date' ) ;
#100 = CARTESIAN_POINT ( 'NONE',  ( -2.500000000000000000, 0.000000000000000000, 0.000000000000000000 ) ) ;
#101 = ORIENTED_EDGE ( 'NONE', *, *, #130, .T. ) ;
#102 = VECTOR ( 'NONE', #163, 1000.000000000000000 ) ;
#103 = CC_DESIGN_APPROVAL ( #269, ( #552 ) ) ;
#104 = DATE_AND_TIME ( #454, #435 ) ;
#105 = PLANE ( 'NONE',  #142 ) ;
#106 = VERTEX_POINT ( 'NONE', #262 ) ;
#107 = DATE_AND_TIME ( #16, #416 ) ;
#108 = EDGE_CURVE ( 'NONE', #75, #438, #316, .T. ) ;
#109 = PLANE ( 'NONE',  #522 ) ;
#110 = ORIENTED_EDGE ( 'NONE', *, *, #122, .F. ) ;
#111 = CARTESIAN_POINT ( 'NONE',  ( 165.5000000000000000, 13.84999999999999964, 0.000000000000000000 ) ) ;
#112 = ORIENTED_EDGE ( 'NONE', *, *, #25, .T. ) ;
#113 = VECTOR ( 'NONE', #548, 1000.000000000000000 ) ;
#114 = AXIS2_PLACEMENT_3D ( 'NONE', #54, #235, #557 ) ;
#115 = DIRECTION ( 'NONE',  ( 1.000000000000000000, 0.000000000000000000, 0.000000000000000000 ) ) ;
#116 = EDGE_LOOP ( 'NONE', ( #573, #559, #112, #561 ) ) ;
#117 = ADVANCED_FACE ( 'NONE', ( #318 ), #81, .F. ) ;
#118 = LINE ( 'NONE', #78, #396 ) ;
#119 = EDGE_LOOP ( 'NONE', ( #101, #63, #470, #257 ) ) ;
#120 = LINE ( 'NONE', #436, #541 ) ;
#121 = VERTEX_POINT ( 'NONE', #217 ) ;
#122 = EDGE_CURVE ( 'NONE', #488, #348, #584, .T. ) ;
#123 = CARTESIAN_POINT ( 'NONE',  ( 165.5000000000000000, 0.000000000000000000, -38.79999999999999716 ) ) ;
#124 = ORIENTED_EDGE ( 'NONE', *, *, #260, .F. ) ;
#125 = CC_DESIGN_PERSON_AND_ORGANIZATION_ASSIGNMENT ( #512, #468, ( #582 ) ) ;
#126 = DIRECTION ( 'NONE',  ( 0.000000000000000000, 0.2083333333333332871, -0.9780578828587918050 ) ) ;
#127 = VERTEX_POINT ( 'NONE', #305 ) ;
#128 = DIRECTION ( 'NONE',  ( 1.000000000000000000, -0.000000000000000000, -0.000000000000000000 ) ) ;
#129 = DIRECTION ( 'NONE',  ( 0.000000000000000000, -0.000000000000000000, 1.000000000000000000 ) ) ;
#130 = EDGE_CURVE ( 'NONE', #382, #479, #229, .T. ) ;
#131 = LINE ( 'NONE', #304, #134 ) ;
#132 = CARTESIAN_POINT ( 'NONE',  ( 147.5000000000000284, 3.649999999999993694, -38.80000000000000426 ) ) ;
#133 = VECTOR ( 'NONE', #381, 1000.000000000000000 ) ;
#134 = VECTOR ( 'NONE', #220, 1000.000000000000000 ) ;
#135 = FACE_OUTER_BOUND ( 'NONE', #294, .T. ) ;
#136 = ORIENTED_EDGE ( 'NONE', *, *, #397, .T. ) ;
#137 = DIRECTION ( 'NONE',  ( 0.000000000000000000, 0.000000000000000000, 1.000000000000000000 ) ) ;
#138 = CARTESIAN_POINT ( 'NONE',  ( 0.000000000000000000, 1.500000000000000000, -33.79999999999999716 ) ) ;
#139 = APPLICATION_CONTEXT ( 'configuration controlled 3d designs of mechanical parts and assemblies' ) ;
#140 = APPROVAL_STATUS ( 'not_yet_approved' ) ;
#141 = DIRECTION ( 'NONE',  ( -0.000000000000000000, -0.000000000000000000, 1.000000000000000000 ) ) ;
#142 = AXIS2_PLACEMENT_3D ( 'NONE', #14, #466, #243 ) ;
#143 = VECTOR ( 'NONE', #312, 1000.000000000000000 ) ;
#144 = CALENDAR_DATE ( 2026, 17, 9 ) ;
#145 = LINE ( 'NONE', #367, #9 ) ;
#146 = VERTEX_POINT ( 'NONE', #11 ) ;
#147 = MECHANICAL_CONTEXT ( 'NONE', #309, 'mechanical' ) ;
#148 = FACE_OUTER_BOUND ( 'NONE', #474, .T. ) ;
#149 = VERTEX_POINT ( 'NONE', #555 ) ;
#150 = CARTESIAN_POINT ( 'NONE',  ( 163.0000000000000000, 2.500000000000000000, -11.73669459430550255 ) ) ;
#151 = ORIENTED_EDGE ( 'NONE', *, *, #79, .T. ) ;
#152 = VECTOR ( 'NONE', #391, 1000.000000000000000 ) ;
#153 = CC_DESIGN_PERSON_AND_ORGANIZATION_ASSIGNMENT ( #553, #231, ( #485 ) ) ;
#154 = AXIS2_PLACEMENT_3D ( 'NONE', #301, #39, #261 ) ;
#155 = PERSON_AND_ORGANIZATION ( #551, #298 ) ;
#156 = DIRECTION ( 'NONE',  ( -0.000000000000000000, -1.000000000000000000, -0.000000000000000000 ) ) ;
#157 = ORIENTED_EDGE ( 'NONE', *, *, #260, .T. ) ;
#158 = LINE ( 'NONE', #273, #20 ) ;
#159 = ORIENTED_EDGE ( 'NONE', *, *, #431, .F. ) ;
#160 = CARTESIAN_POINT ( 'NONE',  ( 0.000000000000000000, 1.500000000000000000, 0.000000000000000000 ) ) ;
#161 = ORIENTED_EDGE ( 'NONE', *, *, #546, .T. ) ;
#162 = AXIS2_PLACEMENT_3D ( 'NONE', #1, #401, #538 ) ;
#163 = DIRECTION ( 'NONE',  ( 1.000000000000000000, 0.000000000000000000, 0.000000000000000000 ) ) ;
#164 = ADVANCED_FACE ( 'NONE', ( #240 ), #109, .F. ) ;
#165 = ORIENTED_EDGE ( 'NONE', *, *, #212, .T. ) ;
#166 = CARTESIAN_POINT ( 'NONE',  ( 0.000000000000000000, 0.000000000000000000, -38.79999999999999716 ) ) ;
#167 = ORIENTED_EDGE ( 'NONE', *, *, #184, .F. ) ;
#168 = FACE_OUTER_BOUND ( 'NONE', #575, .T. ) ;
#169 = ORIENTED_EDGE ( 'NONE', *, *, #326, .T. ) ;
#170 = CC_DESIGN_PERSON_AND_ORGANIZATION_ASSIGNMENT ( #549, #239, ( #552 ) ) ;
#171 = CARTESIAN_POINT ( 'NONE',  ( -5.000000000000004441, 0.000000000000000000, 0.000000000000000000 ) ) ;
#172 = ORIENTED_EDGE ( 'NONE', *, *, #510, .T. ) ;
#173 = CARTESIAN_POINT ( 'NONE',  ( 163.0000000000000000, 0.000000000000000000, 0.000000000000000000 ) ) ;
#174 = CARTESIAN_POINT ( 'NONE',  ( 15.49999999999999822, 12.04999999999999893, -47.79999999999999716 ) ) ;
#175 = CARTESIAN_POINT ( 'NONE',  ( 163.0000000000000000, 0.000000000000000000, 0.000000000000000000 ) ) ;
#176 = DIRECTION ( 'NONE',  ( -0.000000000000000000, 1.000000000000000000, -0.000000000000000000 ) ) ;
#177 = CARTESIAN_POINT ( 'NONE',  ( 0.000000000000000000, 0.1085069444444440590, -0.5094051473222874771 ) ) ;
#178 = VECTOR ( 'NONE', #248, 1000.000000000000000 ) ;
#179 = CARTESIAN_POINT ( 'NONE',  ( 165.5000000000000000, 13.84999999999999964, -38.80000000000000426 ) ) ;
#180 = VECTOR ( 'NONE', #215, 1000.000000000000114 ) ;
#181 = CARTESIAN_POINT ( 'NONE',  ( -5.000000000000004441, 1.500000000000000000, -11.73669459430550255 ) ) ;
#182 = LINE ( 'NONE', #497, #366 ) ;
#183 = DIRECTION ( 'NONE',  ( -0.000000000000000000, -1.000000000000000000, 0.000000000000000000 ) ) ;
#184 = EDGE_CURVE ( 'NONE', #73, #479, #422, .T. ) ;
#185 =( NAMED_UNIT ( * ) SI_UNIT ( $, .STERADIAN. ) SOLID_ANGLE_UNIT ( ) );
#186 = CARTESIAN_POINT ( 'NONE',  ( 0.000000000000000000, 0.000000000000000000, 0.000000000000000000 ) ) ;
#187 = VECTOR ( 'NONE', #405, 1000.000000000000000 ) ;
#188 = ORIENTED_EDGE ( 'NONE', *, *, #3, .F. ) ;
#189 = PLANE ( 'NONE',  #68 ) ;
#190 = ORIENTED_EDGE ( 'NONE', *, *, #326, .F. ) ;
#191 = CARTESIAN_POINT ( 'NONE',  ( 163.0000000000000000, 0.000000000000000000, 0.000000000000000000 ) ) ;
#192 = VERTEX_POINT ( 'NONE', #324 ) ;
#193 =( NAMED_UNIT ( * ) PLANE_ANGLE_UNIT ( ) SI_UNIT ( $, .RADIAN. ) );
#194 = DIRECTION ( 'NONE',  ( -0.000000000000000000, 0.000000000000000000, -1.000000000000000000 ) ) ;
#195 = ORIENTED_EDGE ( 'NONE', *, *, #536, .F. ) ;
#196 = AXIS2_PLACEMENT_3D ( 'NONE', #347, #72, #486 ) ;
#197 = DIRECTION ( 'NONE',  ( 0.000000000000000000, -1.000000000000000000, 0.000000000000000000 ) ) ;
#198 = ORIENTED_EDGE ( 'NONE', *, *, #43, .T. ) ;
#199 = ADVANCED_BREP_SHAPE_REPRESENTATION ( 'taad', ( #453, #114 ), #493 ) ;
#200 = ADVANCED_FACE ( 'NONE', ( #282 ), #564, .T. ) ;
#201 = CARTESIAN_POINT ( 'NONE',  ( -2.500000000000000000, 13.84999999999999964, 0.000000000000000000 ) ) ;
#202 = ORIENTED_EDGE ( 'NONE', *, *, #306, .T. ) ;
#203 = LINE ( 'NONE', #519, #102 ) ;
#204 = ORIENTED_EDGE ( 'NONE', *, *, #59, .T. ) ;
#205 = VECTOR ( 'NONE', #74, 1000.000000000000000 ) ;
#206 = VECTOR ( 'NONE', #141, 1000.000000000000000 ) ;
#207 = AXIS2_PLACEMENT_3D ( 'NONE', #263, #448, #137 ) ;
#208 = CARTESIAN_POINT ( 'NONE',  ( 0.000000000000000000, 13.84999999999999964, 0.000000000000000000 ) ) ;
#209 = VERTEX_POINT ( 'NONE', #17 ) ;
#210 = DIRECTION ( 'NONE',  ( -1.000000000000000000, -0.000000000000000000, -0.000000000000000000 ) ) ;
#211 = VERTEX_POINT ( 'NONE', #7 ) ;
#212 = EDGE_CURVE ( 'NONE', #121, #514, #320, .T. ) ;
#213 = DIRECTION ( 'NONE',  ( -1.000000000000000000, -0.000000000000000000, -0.000000000000000000 ) ) ;
#214 = ORIENTED_EDGE ( 'NONE', *, *, #370, .F. ) ;
#215 = DIRECTION ( 'NONE',  ( 0.000000000000000000, 0.2083333333333332871, -0.9780578828587918050 ) ) ;
#216 = AXIS2_PLACEMENT_3D ( 'NONE', #181, #362, #547 ) ;
#217 = CARTESIAN_POINT ( 'NONE',  ( 0.000000000000000000, 0.000000000000000000, 0.000000000000000000 ) ) ;
#218 = DIRECTION ( 'NONE',  ( -1.000000000000000000, 0.000000000000000000, -0.000000000000000000 ) ) ;
#219 = DIRECTION ( 'NONE',  ( 0.000000000000000000, 0.000000000000000000, 1.000000000000000000 ) ) ;
#220 = DIRECTION ( 'NONE',  ( 1.000000000000000000, -0.000000000000000000, -0.000000000000000000 ) ) ;
#221 = LINE ( 'NONE', #5, #93 ) ;
#222 = FACE_OUTER_BOUND ( 'NONE', #330, .T. ) ;
#223 = CARTESIAN_POINT ( 'NONE',  ( 0.000000000000000000, 0.000000000000000000, 0.000000000000000000 ) ) ;
#224 = ADVANCED_FACE ( 'NONE', ( #148 ), #377, .T. ) ;
#225 = PLANE ( 'NONE',  #162 ) ;
#226 = UNCERTAINTY_MEASURE_WITH_UNIT (LENGTH_MEASURE( 1.000000000000000082E-05 ), #242, 'distance_accuracy_value', 'NONE');
#227 = CARTESIAN_POINT ( 'NONE',  ( 165.5000000000000000, 13.84999999999999964, 0.000000000000000000 ) ) ;
#228 = ADVANCED_FACE ( 'NONE', ( #373 ), #508, .F. ) ;
#229 = LINE ( 'NONE', #504, #572 ) ;
#230 = EDGE_CURVE ( 'NONE', #127, #45, #457, .T. ) ;
#231 = PERSON_AND_ORGANIZATION_ROLE ( 'creator' ) ;
#232 = CARTESIAN_POINT ( 'NONE',  ( 0.000000000000000000, 13.84999999999999964, -33.79999999999999716 ) ) ;
#233 = ORIENTED_EDGE ( 'NONE', *, *, #38, .T. ) ;
#234 = VECTOR ( 'NONE', #128, 1000.000000000000000 ) ;
#235 = DIRECTION ( 'NONE',  ( 0.000000000000000000, 0.000000000000000000, 1.000000000000000000 ) ) ;
#236 = PRODUCT_RELATED_PRODUCT_CATEGORY ( 'detail', '', ( #582 ) ) ;
#237 = FACE_OUTER_BOUND ( 'NONE', #119, .T. ) ;
#238 = ORIENTED_EDGE ( 'NONE', *, *, #503, .T. ) ;
#239 = PERSON_AND_ORGANIZATION_ROLE ( 'creator' ) ;
#240 = FACE_OUTER_BOUND ( 'NONE', #534, .T. ) ;
#241 = ORIENTED_EDGE ( 'NONE', *, *, #335, .F. ) ;
#242 =( LENGTH_UNIT ( ) NAMED_UNIT ( * ) SI_UNIT ( .MILLI., .METRE. ) );
#243 = DIRECTION ( 'NONE',  ( 1.000000000000000000, 0.000000000000000000, -0.000000000000000000 ) ) ;
#244 = ORIENTED_EDGE ( 'NONE', *, *, #230, .F. ) ;
#245 = AXIS2_PLACEMENT_3D ( 'NONE', #232, #425, #558 ) ;
#246 = CARTESIAN_POINT ( 'NONE',  ( 147.4999999999999716, 12.04999999999999893, -47.79999999999999716 ) ) ;
#247 = ORIENTED_EDGE ( 'NONE', *, *, #540, .F. ) ;
#248 = DIRECTION ( 'NONE',  ( 0.000000000000000000, 0.000000000000000000, -1.000000000000000000 ) ) ;
#249 = ORIENTED_EDGE ( 'NONE', *, *, #518, .T. ) ;
#250 = LINE ( 'NONE', #160, #178 ) ;
#251 = ORIENTED_EDGE ( 'NONE', *, *, #361, .F. ) ;
#252 = VECTOR ( 'NONE', #21, 1000.000000000000000 ) ;
#253 = ADVANCED_FACE ( 'NONE', ( #237 ), #189, .T. ) ;
#254 = DIRECTION ( 'NONE',  ( -0.000000000000000000, -0.000000000000000000, 1.000000000000000000 ) ) ;
#255 = ORIENTED_EDGE ( 'NONE', *, *, #554, .F. ) ;
#256 = CARTESIAN_POINT ( 'NONE',  ( 15.50000000000000000, 12.70192307692307310, -2.540384615384613909 ) ) ;
#257 = ORIENTED_EDGE ( 'NONE', *, *, #465, .F. ) ;
#258 = CARTESIAN_POINT ( 'NONE',  ( 163.0000000000000000, 1.500000000000000000, -11.73669459430550255 ) ) ;
#259 = CARTESIAN_POINT ( 'NONE',  ( 163.0000000000000000, 1.500000000000000000, -33.79999999999999716 ) ) ;
#260 = EDGE_CURVE ( 'NONE', #209, #121, #560, .T. ) ;
#261 = DIRECTION ( 'NONE',  ( 0.000000000000000000, -0.1961161351381839890, -0.9805806756909202226 ) ) ;
#262 = CARTESIAN_POINT ( 'NONE',  ( 147.5000000000000284, 10.25000000000000178, -38.80000000000000426 ) ) ;
#263 = CARTESIAN_POINT ( 'NONE',  ( 15.49999999999999822, 0.000000000000000000, 0.000000000000000000 ) ) ;
#264 = LINE ( 'NONE', #132, #329 ) ;
#265 = LINE ( 'NONE', #173, #180 ) ;
#266 = LINE ( 'NONE', #452, #28 ) ;
#267 = LINE ( 'NONE', #258, #42 ) ;
#268 = AXIS2_PLACEMENT_3D ( 'NONE', #47, #490, #129 ) ;
#269 = APPROVAL ( #13, 'UNSPECIFIED' ) ;
#270 = LINE ( 'NONE', #363, #113 ) ;
#271 = APPROVAL_PERSON_ORGANIZATION ( #515, #66, #272 ) ;
#272 = APPROVAL_ROLE ( '' ) ;
#273 = CARTESIAN_POINT ( 'NONE',  ( -2.500000000000002220, 10.24999999999999822, -38.80000000000000426 ) ) ;
#274 = APPROVAL_ROLE ( '' ) ;
#275 = CARTESIAN_POINT ( 'NONE',  ( -2.500000000000000000, 13.84999999999999964, 0.000000000000000000 ) ) ;
#276 = EDGE_LOOP ( 'NONE', ( #413, #340, #15, #151 ) ) ;
#277 = DATE_AND_TIME ( #144, #358 ) ;
#278 = CARTESIAN_POINT ( 'NONE',  ( -2.500000000000002220, 12.04999999999999893, -47.79999999999999716 ) ) ;
#279 = ORIENTED_EDGE ( 'NONE', *, *, #38, .F. ) ;
#280 = SECURITY_CLASSIFICATION ( '', '', #6 ) ;
#281 = PERSON_AND_ORGANIZATION ( #551, #298 ) ;
#282 = FACE_OUTER_BOUND ( 'NONE', #379, .T. ) ;
#283 = ORIENTED_EDGE ( 'NONE', *, *, #79, .F. ) ;
#284 = DIRECTION ( 'NONE',  ( 0.000000000000000000, 1.000000000000000000, 0.000000000000000000 ) ) ;
#285 = ORIENTED_EDGE ( 'NONE', *, *, #540, .T. ) ;
#286 = CARTESIAN_POINT ( 'NONE',  ( 147.5000000000000284, 3.649999999999995470, -47.79999999999999716 ) ) ;
#287 = EDGE_CURVE ( 'NONE', #348, #146, #419, .T. ) ;
#288 = ORIENTED_EDGE ( 'NONE', *, *, #49, .F. ) ;
#289 = AXIS2_PLACEMENT_3D ( 'NONE', #223, #408, #2 ) ;
#290 = DIRECTION ( 'NONE',  ( 0.000000000000000000, -0.1961161351381839890, -0.9805806756909202226 ) ) ;
#291 = ORIENTED_EDGE ( 'NONE', *, *, #465, .T. ) ;
#292 = ADVANCED_FACE ( 'NONE', ( #566, #97 ), #105, .F. ) ;
#293 = LINE ( 'NONE', #256, #317 ) ;
#294 = EDGE_LOOP ( 'NONE', ( #430, #124, #279, #214, #420, #476 ) ) ;
#295 = DIRECTION ( 'NONE',  ( 0.000000000000000000, -0.1961161351381841556, 0.9805806756909201116 ) ) ;
#296 = EDGE_LOOP ( 'NONE', ( #346, #463, #255, #433 ) ) ;
#297 = VECTOR ( 'NONE', #50, 1000.000000000000000 ) ;
#298 = ORGANIZATION ( 'UNSPECIFIED', 'UNSPECIFIED', '' ) ;
#299 = FACE_OUTER_BOUND ( 'NONE', #539, .T. ) ;
#300 = ORIENTED_EDGE ( 'NONE', *, *, #385, .T. ) ;
#301 = CARTESIAN_POINT ( 'NONE',  ( -2.500000000000002220, 12.70192307692307310, -2.540384615384613909 ) ) ;
#302 = EDGE_CURVE ( 'NONE', #8, #33, #95, .T. ) ;
#303 = ORIENTED_EDGE ( 'NONE', *, *, #339, .T. ) ;
#304 = CARTESIAN_POINT ( 'NONE',  ( -5.000000000000004441, 1.500000000000000000, -11.73669459430550255 ) ) ;
#305 = CARTESIAN_POINT ( 'NONE',  ( 0.000000000000000000, 13.84999999999999964, -33.79999999999999716 ) ) ;
#306 = EDGE_CURVE ( 'NONE', #73, #192, #145, .T. ) ;
#307 = VECTOR ( 'NONE', #176, 1000.000000000000000 ) ;
#308 = CARTESIAN_POINT ( 'NONE',  ( 165.5000000000000000, 0.000000000000000000, 0.000000000000000000 ) ) ;
#309 = APPLICATION_CONTEXT ( 'configuration controlled 3d designs of mechanical parts and assemblies' ) ;
#310 = DESIGN_CONTEXT ( 'detailed design', #139, 'design' ) ;
#311 = FACE_OUTER_BOUND ( 'NONE', #428, .T. ) ;
#312 = DIRECTION ( 'NONE',  ( 1.000000000000000000, -0.000000000000000000, -0.000000000000000000 ) ) ;
#313 = PLANE ( 'NONE',  #268 ) ;
#314 = CC_DESIGN_DATE_AND_TIME_ASSIGNMENT ( #277, #418, ( #485 ) ) ;
#315 = CARTESIAN_POINT ( 'NONE',  ( 147.5000000000000284, 2.394230769230763833, 0.4788461538461530331 ) ) ;
#316 = LINE ( 'NONE', #227, #206 ) ;
#317 = VECTOR ( 'NONE', #290, 1000.000000000000000 ) ;
#318 = FACE_OUTER_BOUND ( 'NONE', #296, .T. ) ;
#319 = PERSON_AND_ORGANIZATION_ROLE ( 'design_supplier' ) ;
#320 = LINE ( 'NONE', #186, #252 ) ;
#321 = EDGE_CURVE ( 'NONE', #567, #106, #158, .T. ) ;
#322 = ORIENTED_EDGE ( 'NONE', *, *, #375, .T. ) ;
#323 = COORDINATED_UNIVERSAL_TIME_OFFSET ( 7, 0, .AHEAD. ) ;
#324 = CARTESIAN_POINT ( 'NONE',  ( 15.50000000000000000, 3.649999999999996803, -47.79999999999999716 ) ) ;
#325 = VERTEX_POINT ( 'NONE', #55 ) ;
#326 = EDGE_CURVE ( 'NONE', #372, #192, #293, .T. ) ;
#327 = COORDINATED_UNIVERSAL_TIME_OFFSET ( 7, 0, .AHEAD. ) ;
#328 = DIRECTION ( 'NONE',  ( 1.000000000000000000, 0.000000000000000000, 0.000000000000000000 ) ) ;
#329 = VECTOR ( 'NONE', #447, 1000.000000000000000 ) ;
#330 = EDGE_LOOP ( 'NONE', ( #195, #169, #322, #291 ) ) ;
#331 = ADVANCED_FACE ( 'NONE', ( #299 ), #389, .T. ) ;
#332 = CALENDAR_DATE ( 2026, 17, 9 ) ;
#333 = DIRECTION ( 'NONE',  ( -0.000000000000000000, 0.000000000000000000, -1.000000000000000000 ) ) ;
#334 = ORIENTED_EDGE ( 'NONE', *, *, #437, .F. ) ;
#335 = EDGE_CURVE ( 'NONE', #8, #27, #118, .T. ) ;
#336 = CARTESIAN_POINT ( 'NONE',  ( -2.500000000000002220, 2.394230769230763833, 0.4788461538461530331 ) ) ;
#337 = ORIENTED_EDGE ( 'NONE', *, *, #321, .F. ) ;
#338 = DIRECTION ( 'NONE',  ( -0.000000000000000000, 1.000000000000000000, -0.000000000000000000 ) ) ;
#339 = EDGE_CURVE ( 'NONE', #121, #211, #394, .T. ) ;
#340 = ORIENTED_EDGE ( 'NONE', *, *, #459, .F. ) ;
#341 = CLOSED_SHELL ( 'NONE', ( #200, #491, #477, #331, #576, #292, #585, #529, #590, #117, #228, #19, #88, #164, #224, #523, #253, #499 ) ) ;
#342 = CARTESIAN_POINT ( 'NONE',  ( 0.000000000000000000, 13.84999999999999964, -33.79999999999999716 ) ) ;
#343 = ORIENTED_EDGE ( 'NONE', *, *, #518, .F. ) ;
#344 = CC_DESIGN_DATE_AND_TIME_ASSIGNMENT ( #502, #99, ( #280 ) ) ;
#345 = CARTESIAN_POINT ( 'NONE',  ( 15.49999999999999822, 5.449999999999999289, -38.79999999999999716 ) ) ;
#346 = ORIENTED_EDGE ( 'NONE', *, *, #122, .T. ) ;
#347 = CARTESIAN_POINT ( 'NONE',  ( -2.500000000000000000, 0.000000000000000000, 0.000000000000000000 ) ) ;
#348 = VERTEX_POINT ( 'NONE', #574 ) ;
#349 = AXIS2_PLACEMENT_3D ( 'NONE', #336, #471, #70 ) ;
#350 = DIRECTION ( 'NONE',  ( 0.000000000000000000, 0.000000000000000000, -1.000000000000000000 ) ) ;
#351 = EDGE_LOOP ( 'NONE', ( #507, #172, #204, #374, #244, #565 ) ) ;
#352 = CARTESIAN_POINT ( 'NONE',  ( 15.49999999999999822, 10.24999999999999822, -38.79999999999999716 ) ) ;
#353 = CARTESIAN_POINT ( 'NONE',  ( -5.000000000000004441, 2.500000000000000000, -11.73669459430550255 ) ) ;
#354 = DIRECTION ( 'NONE',  ( 0.000000000000000000, 0.000000000000000000, 1.000000000000000000 ) ) ;
#355 = CARTESIAN_POINT ( 'NONE',  ( 0.000000000000000000, 2.500000000000000000, -11.73669459430550255 ) ) ;
#356 = EDGE_CURVE ( 'NONE', #578, #424, #30, .T. ) ;
#357 = VECTOR ( 'NONE', #521, 1000.000000000000000 ) ;
#358 = LOCAL_TIME ( 14, 48, 59.00000000000000000, #414 ) ;
#359 = LINE ( 'NONE', #177, #473 ) ;
#360 = CARTESIAN_POINT ( 'NONE',  ( 163.0000000000000000, 13.84999999999999964, -33.79999999999999716 ) ) ;
#361 = EDGE_CURVE ( 'NONE', #424, #75, #478, .T. ) ;
#362 = DIRECTION ( 'NONE',  ( 0.000000000000000000, -1.000000000000000000, -0.000000000000000000 ) ) ;
#363 = CARTESIAN_POINT ( 'NONE',  ( -2.500000000000002220, 13.84999999999999964, -38.80000000000000426 ) ) ;
#364 = APPROVAL_STATUS ( 'not_yet_approved' ) ;
#365 = PLANE ( 'NONE',  #289 ) ;
#366 = VECTOR ( 'NONE', #550, 1000.000000000000000 ) ;
#367 = CARTESIAN_POINT ( 'NONE',  ( 15.49999999999999822, 12.04999999999999893, -47.79999999999999716 ) ) ;
#368 = ORIENTED_EDGE ( 'NONE', *, *, #108, .F. ) ;
#369 = CALENDAR_DATE ( 2026, 17, 9 ) ;
#370 = EDGE_CURVE ( 'NONE', #424, #467, #386, .T. ) ;
#371 = DIRECTION ( 'NONE',  ( 1.000000000000000000, -0.000000000000000000, -0.000000000000000000 ) ) ;
#372 = VERTEX_POINT ( 'NONE', #345 ) ;
#373 = FACE_OUTER_BOUND ( 'NONE', #80, .T. ) ;
#374 = ORIENTED_EDGE ( 'NONE', *, *, #431, .T. ) ;
#375 = EDGE_CURVE ( 'NONE', #192, #382, #571, .T. ) ;
#376 = DATE_AND_TIME ( #369, #543 ) ;
#377 = PLANE ( 'NONE',  #472 ) ;
#378 = APPROVAL_PERSON_ORGANIZATION ( #155, #269, #274 ) ;
#379 = EDGE_LOOP ( 'NONE', ( #390, #58, #384, #509 ) ) ;
#380 = APPROVAL ( #364, 'UNSPECIFIED' ) ;
#381 = DIRECTION ( 'NONE',  ( -0.000000000000000000, -1.000000000000000000, -0.000000000000000000 ) ) ;
#382 = VERTEX_POINT ( 'NONE', #286 ) ;
#383 = LINE ( 'NONE', #342, #434 ) ;
#384 = ORIENTED_EDGE ( 'NONE', *, *, #184, .T. ) ;
#385 = EDGE_CURVE ( 'NONE', #209, #325, #120, .T. ) ;
#386 = LINE ( 'NONE', #166, #542 ) ;
#387 = ORIENTED_EDGE ( 'NONE', *, *, #554, .T. ) ;
#388 = VECTOR ( 'NONE', #371, 1000.000000000000000 ) ;
#389 = PLANE ( 'NONE',  #196 ) ;
#390 = ORIENTED_EDGE ( 'NONE', *, *, #375, .F. ) ;
#391 = DIRECTION ( 'NONE',  ( -0.000000000000000000, 0.1961161351381839890, 0.9805806756909202226 ) ) ;
#392 = EDGE_LOOP ( 'NONE', ( #524, #334, #202, #190 ) ) ;
#393 = PRODUCT_DEFINITION_SHAPE ( 'NONE', 'NONE',  #485 ) ;
#394 = LINE ( 'NONE', #208, #532 ) ;
#395 = ORIENTED_EDGE ( 'NONE', *, *, #546, .F. ) ;
#396 = VECTOR ( 'NONE', #254, 1000.000000000000000 ) ;
#397 = EDGE_CURVE ( 'NONE', #45, #33, #203, .T. ) ;
#398 = CC_DESIGN_APPROVAL ( #380, ( #485 ) ) ;
#399 = DIRECTION ( 'NONE',  ( -1.000000000000000000, 0.000000000000000000, 0.000000000000000000 ) ) ;
#400 = ORIENTED_EDGE ( 'NONE', *, *, #29, .F. ) ;
#401 = DIRECTION ( 'NONE',  ( 0.000000000000000000, -1.000000000000000000, 0.000000000000000000 ) ) ;
#402 = EDGE_CURVE ( 'NONE', #127, #8, #383, .T. ) ;
#403 = LINE ( 'NONE', #500, #187 ) ;
#404 = LINE ( 'NONE', #315, #484 ) ;
#405 = DIRECTION ( 'NONE',  ( 0.000000000000000000, -1.000000000000000000, 0.000000000000000000 ) ) ;
#406 = VECTOR ( 'NONE', #489, 1000.000000000000000 ) ;
#407 = PLANE ( 'NONE',  #216 ) ;
#408 = DIRECTION ( 'NONE',  ( -1.000000000000000000, 0.000000000000000000, 0.000000000000000000 ) ) ;
#409 = PLANE ( 'NONE',  #69 ) ;
#410 = LINE ( 'NONE', #355, #501 ) ;
#411 = APPROVAL_DATE_TIME ( #376, #269 ) ;
#412 = DIRECTION ( 'NONE',  ( 1.000000000000000000, -0.000000000000000000, -0.000000000000000000 ) ) ;
#413 = ORIENTED_EDGE ( 'NONE', *, *, #82, .T. ) ;
#414 = COORDINATED_UNIVERSAL_TIME_OFFSET ( 7, 0, .AHEAD. ) ;
#415 = DIRECTION ( 'NONE',  ( 0.000000000000000000, 0.000000000000000000, -1.000000000000000000 ) ) ;
#416 = LOCAL_TIME ( 14, 48, 59.00000000000000000, #327 ) ;
#417 = ORIENTED_EDGE ( 'NONE', *, *, #385, .F. ) ;
#418 = DATE_TIME_ROLE ( 'creation_date' ) ;
#419 = LINE ( 'NONE', #150, #581 ) ;
#420 = ORIENTED_EDGE ( 'NONE', *, *, #356, .F. ) ;
#421 = APPLICATION_PROTOCOL_DEFINITION ( 'international standard', 'config_control_design', 1994, #139 ) ;
#422 = LINE ( 'NONE', #278, #492 ) ;
#423 = EDGE_CURVE ( 'NONE', #211, #127, #525, .T. ) ;
#424 = VERTEX_POINT ( 'NONE', #475 ) ;
#425 = DIRECTION ( 'NONE',  ( 0.000000000000000000, 0.000000000000000000, -1.000000000000000000 ) ) ;
#426 = ORIENTED_EDGE ( 'NONE', *, *, #43, .F. ) ;
#427 = LINE ( 'NONE', #201, #234 ) ;
#428 = EDGE_LOOP ( 'NONE', ( #400, #343, #556, #12, #487, #98, #283, #368 ) ) ;
#429 = LINE ( 'NONE', #26, #152 ) ;
#430 = ORIENTED_EDGE ( 'NONE', *, *, #212, .F. ) ;
#431 = EDGE_CURVE ( 'NONE', #22, #45, #250, .T. ) ;
#432 = LINE ( 'NONE', #34, #591 ) ;
#433 = ORIENTED_EDGE ( 'NONE', *, *, #59, .F. ) ;
#434 = VECTOR ( 'NONE', #115, 1000.000000000000000 ) ;
#435 = LOCAL_TIME ( 14, 48, 59.00000000000000000, #460 ) ;
#436 = CARTESIAN_POINT ( 'NONE',  ( -2.500000000000000000, 13.84999999999999964, 0.000000000000000000 ) ) ;
#437 = EDGE_CURVE ( 'NONE', #73, #567, #439, .T. ) ;
#438 = VERTEX_POINT ( 'NONE', #111 ) ;
#439 = LINE ( 'NONE', #36, #511 ) ;
#440 = ORIENTED_EDGE ( 'NONE', *, *, #536, .T. ) ;
#441 = FACE_OUTER_BOUND ( 'NONE', #116, .T. ) ;
#442 = DIRECTION ( 'NONE',  ( 0.000000000000000000, 0.000000000000000000, 1.000000000000000000 ) ) ;
#443 = AXIS2_PLACEMENT_3D ( 'NONE', #461, #333, #57 ) ;
#444 = DIRECTION ( 'NONE',  ( 0.000000000000000000, 0.1961161351381841556, -0.9805806756909201116 ) ) ;
#445 = CARTESIAN_POINT ( 'NONE',  ( -5.000000000000004441, 2.500000000000000000, -11.73669459430550255 ) ) ;
#446 = CARTESIAN_POINT ( 'NONE',  ( -2.500000000000000000, 13.84999999999999964, -38.79999999999999716 ) ) ;
#447 = DIRECTION ( 'NONE',  ( -0.000000000000000000, -1.000000000000000000, -0.000000000000000000 ) ) ;
#448 = DIRECTION ( 'NONE',  ( -1.000000000000000000, 0.000000000000000000, 0.000000000000000000 ) ) ;
#449 = LINE ( 'NONE', #92, #297 ) ;
#450 = AXIS2_PLACEMENT_3D ( 'NONE', #445, #442, #40 ) ;
#451 = PLANE ( 'NONE',  #563 ) ;
#452 = CARTESIAN_POINT ( 'NONE',  ( 165.5000000000000000, 13.84999999999999964, 0.000000000000000000 ) ) ;
#453 = MANIFOLD_SOLID_BREP ( 'Cut-Extrude5', #341 ) ;
#454 = CALENDAR_DATE ( 2026, 17, 9 ) ;
#455 = DIRECTION ( 'NONE',  ( 1.000000000000000000, -0.000000000000000000, -0.000000000000000000 ) ) ;
#456 = CC_DESIGN_PERSON_AND_ORGANIZATION_ASSIGNMENT ( #281, #319, ( #552 ) ) ;
#457 = LINE ( 'NONE', #65, #41 ) ;
#458 = ORIENTED_EDGE ( 'NONE', *, *, #370, .T. ) ;
#459 = EDGE_CURVE ( 'NONE', #578, #514, #432, .T. ) ;
#460 = COORDINATED_UNIVERSAL_TIME_OFFSET ( 7, 0, .AHEAD. ) ;
#461 = CARTESIAN_POINT ( 'NONE',  ( 0.000000000000000000, 0.000000000000000000, -47.79999999999999716 ) ) ;
#462 = AXIS2_PLACEMENT_3D ( 'NONE', #308, #399, #354 ) ;
#463 = ORIENTED_EDGE ( 'NONE', *, *, #287, .T. ) ;
#464 = APPROVAL_DATE_TIME ( #104, #66 ) ;
#465 = EDGE_CURVE ( 'NONE', #382, #149, #429, .T. ) ;
#466 = DIRECTION ( 'NONE',  ( 0.000000000000000000, 0.000000000000000000, 1.000000000000000000 ) ) ;
#467 = VERTEX_POINT ( 'NONE', #577 ) ;
#468 = PERSON_AND_ORGANIZATION_ROLE ( 'design_owner' ) ;
#469 = DIRECTION ( 'NONE',  ( -1.000000000000000000, 0.000000000000000000, 0.000000000000000000 ) ) ;
#470 = ORIENTED_EDGE ( 'NONE', *, *, #3, .T. ) ;
#471 = DIRECTION ( 'NONE',  ( 0.000000000000000000, 0.9805806756909201116, 0.1961161351381841556 ) ) ;
#472 = AXIS2_PLACEMENT_3D ( 'NONE', #191, #469, #506 ) ;
#473 = VECTOR ( 'NONE', #44, 1000.000000000000227 ) ;
#474 = EDGE_LOOP ( 'NONE', ( #395, #37, #241, #24, #247, #531 ) ) ;
#475 = CARTESIAN_POINT ( 'NONE',  ( 165.5000000000000000, 0.000000000000000000, -38.79999999999999716 ) ) ;
#476 = ORIENTED_EDGE ( 'NONE', *, *, #459, .T. ) ;
#477 = ADVANCED_FACE ( 'NONE', ( #168 ), #579, .T. ) ;
#478 = LINE ( 'NONE', #123, #357 ) ;
#479 = VERTEX_POINT ( 'NONE', #246 ) ;
#480 = EDGE_CURVE ( 'NONE', #325, #211, #427, .T. ) ;
#481 = DIRECTION ( 'NONE',  ( 0.000000000000000000, 0.000000000000000000, -1.000000000000000000 ) ) ;
#482 = ORIENTED_EDGE ( 'NONE', *, *, #480, .F. ) ;
#483 = VECTOR ( 'NONE', #481, 1000.000000000000000 ) ;
#484 = VECTOR ( 'NONE', #444, 1000.000000000000114 ) ;
#485 = PRODUCT_DEFINITION ( 'UNKNOWN', '', #552, #310 ) ;
#486 = DIRECTION ( 'NONE',  ( 0.000000000000000000, 0.000000000000000000, 1.000000000000000000 ) ) ;
#487 = ORIENTED_EDGE ( 'NONE', *, *, #402, .T. ) ;
#488 = VERTEX_POINT ( 'NONE', #535 ) ;
#489 = DIRECTION ( 'NONE',  ( -0.000000000000000000, -0.000000000000000000, -1.000000000000000000 ) ) ;
#490 = DIRECTION ( 'NONE',  ( 0.000000000000000000, 1.000000000000000000, 0.000000000000000000 ) ) ;
#491 = ADVANCED_FACE ( 'NONE', ( #222 ), #496, .T. ) ;
#492 = VECTOR ( 'NONE', #412, 1000.000000000000000 ) ;
#493 =( GEOMETRIC_REPRESENTATION_CONTEXT ( 3 ) GLOBAL_UNCERTAINTY_ASSIGNED_CONTEXT ( ( #226 ) ) GLOBAL_UNIT_ASSIGNED_CONTEXT ( ( #242, #193, #185 ) ) REPRESENTATION_CONTEXT ( 'NONE', 'WORKASPACE' ) );
#494 = PLANE ( 'NONE',  #462 ) ;
#495 = CARTESIAN_POINT ( 'NONE',  ( 163.0000000000000000, 13.84999999999999964, 0.000000000000000000 ) ) ;
#496 = PLANE ( 'NONE',  #154 ) ;
#497 = CARTESIAN_POINT ( 'NONE',  ( 165.5000000000000000, 0.000000000000000000, 0.000000000000000000 ) ) ;
#498 = FACE_OUTER_BOUND ( 'NONE', #580, .T. ) ;
#499 = ADVANCED_FACE ( 'NONE', ( #583 ), #89, .T. ) ;
#500 = CARTESIAN_POINT ( 'NONE',  ( -2.500000000000000000, 13.84999999999999964, -38.79999999999999716 ) ) ;
#501 = VECTOR ( 'NONE', #183, 1000.000000000000000 ) ;
#502 = DATE_AND_TIME ( #332, #31 ) ;
#503 = EDGE_CURVE ( 'NONE', #106, #479, #404, .T. ) ;
#504 = CARTESIAN_POINT ( 'NONE',  ( 147.5000000000000284, 3.649999999999995470, -47.79999999999999716 ) ) ;
#505 = PERSON_AND_ORGANIZATION_ROLE ( 'classification_officer' ) ;
#506 = DIRECTION ( 'NONE',  ( 0.000000000000000000, 0.000000000000000000, 1.000000000000000000 ) ) ;
#507 = ORIENTED_EDGE ( 'NONE', *, *, #339, .F. ) ;
#508 = PLANE ( 'NONE',  #245 ) ;
#509 = ORIENTED_EDGE ( 'NONE', *, *, #130, .F. ) ;
#510 = EDGE_CURVE ( 'NONE', #121, #488, #359, .T. ) ;
#511 = VECTOR ( 'NONE', #295, 1000.000000000000114 ) ;
#512 = PERSON_AND_ORGANIZATION ( #551, #298 ) ;
#513 = DIRECTION ( 'NONE',  ( 0.000000000000000000, -1.000000000000000000, 0.000000000000000000 ) ) ;
#514 = VERTEX_POINT ( 'NONE', #175 ) ;
#515 = PERSON_AND_ORGANIZATION ( #551, #298 ) ;
#516 = CARTESIAN_POINT ( 'NONE',  ( 147.5000000000000284, 0.000000000000000000, 0.000000000000000000 ) ) ;
#517 = ORIENTED_EDGE ( 'NONE', *, *, #397, .F. ) ;
#518 = EDGE_CURVE ( 'NONE', #325, #570, #91, .T. ) ;
#519 = CARTESIAN_POINT ( 'NONE',  ( 0.000000000000000000, 1.500000000000000000, -33.79999999999999716 ) ) ;
#520 = EDGE_LOOP ( 'NONE', ( #288, #440, #188, #337 ) ) ;
#521 = DIRECTION ( 'NONE',  ( 0.000000000000000000, 1.000000000000000000, 0.000000000000000000 ) ) ;
#522 = AXIS2_PLACEMENT_3D ( 'NONE', #275, #194, #60 ) ;
#523 = ADVANCED_FACE ( 'NONE', ( #83 ), #451, .F. ) ;
#524 = ORIENTED_EDGE ( 'NONE', *, *, #49, .T. ) ;
#525 = LINE ( 'NONE', #76, #562 ) ;
#526 = ORIENTED_EDGE ( 'NONE', *, *, #302, .F. ) ;
#527 = DIRECTION ( 'NONE',  ( -0.000000000000000000, -0.000000000000000000, -1.000000000000000000 ) ) ;
#528 = ORIENTED_EDGE ( 'NONE', *, *, #29, .T. ) ;
#529 = ADVANCED_FACE ( 'NONE', ( #135 ), #225, .T. ) ;
#530 = CARTESIAN_POINT ( 'NONE',  ( 165.5000000000000000, 0.000000000000000000, 0.000000000000000000 ) ) ;
#531 = ORIENTED_EDGE ( 'NONE', *, *, #287, .F. ) ;
#532 = VECTOR ( 'NONE', #338, 1000.000000000000000 ) ;
#533 = DIRECTION ( 'NONE',  ( 0.000000000000000000, -0.9780578828587919160, -0.2083333333333333148 ) ) ;
#534 = EDGE_LOOP ( 'NONE', ( #303, #482, #417, #157 ) ) ;
#535 = CARTESIAN_POINT ( 'NONE',  ( -1.734723475976807094E-15, 2.500000000000000000, -11.73669459430550255 ) ) ;
#536 = EDGE_CURVE ( 'NONE', #372, #149, #46, .T. ) ;
#537 = DIRECTION ( 'NONE',  ( 1.000000000000000000, -0.000000000000000000, -0.000000000000000000 ) ) ;
#538 = DIRECTION ( 'NONE',  ( 0.000000000000000000, -0.000000000000000000, -1.000000000000000000 ) ) ;
#539 = EDGE_LOOP ( 'NONE', ( #249, #198, #233, #300 ) ) ;
#540 = EDGE_CURVE ( 'NONE', #146, #33, #267, .T. ) ;
#541 = VECTOR ( 'NONE', #23, 1000.000000000000000 ) ;
#542 = VECTOR ( 'NONE', #213, 1000.000000000000000 ) ;
#543 = LOCAL_TIME ( 14, 48, 59.00000000000000000, #323 ) ;
#544 = CARTESIAN_POINT ( 'NONE',  ( 165.5000000000000000, 0.000000000000000000, 0.000000000000000000 ) ) ;
#545 = ORIENTED_EDGE ( 'NONE', *, *, #321, .T. ) ;
#546 = EDGE_CURVE ( 'NONE', #514, #348, #265, .T. ) ;
#547 = DIRECTION ( 'NONE',  ( 0.000000000000000000, 0.000000000000000000, -1.000000000000000000 ) ) ;
#548 = DIRECTION ( 'NONE',  ( 1.000000000000000000, -0.000000000000000000, -0.000000000000000000 ) ) ;
#549 = PERSON_AND_ORGANIZATION ( #551, #298 ) ;
#550 = DIRECTION ( 'NONE',  ( -0.000000000000000000, -1.000000000000000000, -0.000000000000000000 ) ) ;
#551 = PERSON ( 'UNSPECIFIED', 'UNSPECIFIED', 'UNSPECIFIED', ('UNSPECIFIED'), ('UNSPECIFIED'), ('UNSPECIFIED') ) ;
#552 = PRODUCT_DEFINITION_FORMATION_WITH_SPECIFIED_SOURCE ( 'ANY', '', #582, .NOT_KNOWN. ) ;
#553 = PERSON_AND_ORGANIZATION ( #551, #298 ) ;
#554 = EDGE_CURVE ( 'NONE', #22, #146, #131, .T. ) ;
#555 = CARTESIAN_POINT ( 'NONE',  ( 147.5000000000000284, 5.449999999999996625, -38.80000000000000426 ) ) ;
#556 = ORIENTED_EDGE ( 'NONE', *, *, #480, .T. ) ;
#557 = DIRECTION ( 'NONE',  ( 1.000000000000000000, 0.000000000000000000, 0.000000000000000000 ) ) ;
#558 = DIRECTION ( 'NONE',  ( -1.000000000000000000, 0.000000000000000000, -0.000000000000000000 ) ) ;
#559 = ORIENTED_EDGE ( 'NONE', *, *, #108, .T. ) ;
#560 = LINE ( 'NONE', #100, #388 ) ;
#561 = ORIENTED_EDGE ( 'NONE', *, *, #356, .T. ) ;
#562 = VECTOR ( 'NONE', #527, 1000.000000000000000 ) ;
#563 = AXIS2_PLACEMENT_3D ( 'NONE', #544, #52, #218 ) ;
#564 = PLANE ( 'NONE',  #443 ) ;
#565 = ORIENTED_EDGE ( 'NONE', *, *, #423, .F. ) ;
#566 = FACE_BOUND ( 'NONE', #520, .T. ) ;
#567 = VERTEX_POINT ( 'NONE', #352 ) ;
#568 = CC_DESIGN_PERSON_AND_ORGANIZATION_ASSIGNMENT ( #64, #505, ( #280 ) ) ;
#569 = CARTESIAN_POINT ( 'NONE',  ( -2.500000000000002220, 3.649999999999995470, -47.79999999999999716 ) ) ;
#570 = VERTEX_POINT ( 'NONE', #48 ) ;
#571 = LINE ( 'NONE', #569, #205 ) ;
#572 = VECTOR ( 'NONE', #284, 1000.000000000000000 ) ;
#573 = ORIENTED_EDGE ( 'NONE', *, *, #361, .T. ) ;
#574 = CARTESIAN_POINT ( 'NONE',  ( 163.0000000000000000, 2.500000000000000000, -11.73669459430550255 ) ) ;
#575 = EDGE_LOOP ( 'NONE', ( #167, #71, #545, #238 ) ) ;
#576 = ADVANCED_FACE ( 'NONE', ( #441 ), #494, .F. ) ;
#577 = CARTESIAN_POINT ( 'NONE',  ( -2.500000000000000000, 0.000000000000000000, -38.79999999999999716 ) ) ;
#578 = VERTEX_POINT ( 'NONE', #86 ) ;
#579 = PLANE ( 'NONE',  #349 ) ;
#580 = EDGE_LOOP ( 'NONE', ( #165, #161, #110, #35 ) ) ;
#581 = VECTOR ( 'NONE', #513, 1000.000000000000000 ) ;
#582 = PRODUCT ( 'taad', 'taad', '', ( #147 ) ) ;
#583 = FACE_OUTER_BOUND ( 'NONE', #392, .T. ) ;
#584 = LINE ( 'NONE', #353, #85 ) ;
#585 = ADVANCED_FACE ( 'NONE', ( #588 ), #407, .F. ) ;
#586 = CARTESIAN_POINT ( 'NONE',  ( -2.500000000000002220, 5.449999999999999289, -38.79999999999999716 ) ) ;
#587 = CARTESIAN_POINT ( 'NONE',  ( -1.734723475976807094E-15, 1.500000000000000000, -11.73669459430550255 ) ) ;
#588 = FACE_OUTER_BOUND ( 'NONE', #77, .T. ) ;
#589 = LINE ( 'NONE', #90, #307 ) ;
#590 = ADVANCED_FACE ( 'NONE', ( #498 ), #409, .F. ) ;
#591 = VECTOR ( 'NONE', #210, 1000.000000000000000 ) ;
#592 = CC_DESIGN_APPROVAL ( #66, ( #280 ) ) ;
ENDSEC;
END-ISO-10303-21;
